<svg xmlns="http://www.w3.org/2000/svg" xmlns:xlink="http://www.w3.org/1999/xlink" width="500" zoomAndPan="magnify" viewBox="0 0 375 374.999991" height="500" preserveAspectRatio="xMidYMid meet" version="1.0"><defs><clipPath id="d405cf9a91"><path d="M 105.972656 198 L 268.722656 198 L 268.722656 337.5 L 105.972656 337.5 Z M 105.972656 198 " clip-rule="nonzero"/></clipPath><clipPath id="e182e45802"><path d="M 105.972656 58.496094 L 268.722656 58.496094 L 268.722656 197.996094 L 105.972656 197.996094 Z M 105.972656 58.496094 " clip-rule="nonzero"/></clipPath></defs><g clip-path="url(#d405cf9a91)"><path fill="#120037" d="M 195.796875 249.300781 L 222.027344 267.75 L 203.949219 280.464844 L 191.949219 272.023438 L 198.03125 267.75 L 183.800781 257.742188 L 183.796875 257.742188 L 171.796875 249.304688 L 171.800781 249.300781 L 164 243.8125 L 129.96875 267.75 L 164 291.683594 L 171.800781 286.195312 L 145.574219 267.75 L 163.65625 255.03125 L 175.652344 263.46875 L 169.570312 267.75 L 183.800781 277.757812 L 183.808594 277.75 L 195.808594 286.191406 L 195.796875 286.195312 L 268.726562 337.488281 L 244.726562 337.488281 L 183.800781 294.636719 L 175.996094 300.125 L 176 300.125 L 164 308.566406 L 105.96875 267.75 L 164 226.933594 L 183.800781 240.859375 L 244.726562 198.007812 L 268.726562 198.007812 Z M 229.042969 198.007812 L 229.042969 198.0625 L 184.136719 229.648438 L 172.140625 221.207031 L 205.125 198.007812 Z M 229.042969 337.488281 L 205.125 337.488281 L 172.140625 314.292969 L 184.140625 305.851562 L 229.042969 337.433594 Z M 229.042969 337.488281 " fill-opacity="1" fill-rule="evenodd"/></g><g clip-path="url(#e182e45802)"><path fill="#120037" d="M 195.796875 109.800781 L 222.027344 128.246094 L 203.949219 140.964844 L 191.949219 132.523438 L 198.03125 128.246094 L 183.800781 118.238281 L 183.796875 118.242188 L 171.796875 109.804688 L 171.800781 109.800781 L 164 104.3125 L 129.96875 128.246094 L 164 152.183594 L 171.800781 146.695312 L 145.574219 128.246094 L 163.65625 115.527344 L 175.652344 123.96875 L 169.570312 128.246094 L 183.800781 138.257812 L 183.808594 138.25 L 195.808594 146.6875 L 195.796875 146.695312 L 268.726562 197.988281 L 244.726562 197.988281 L 183.800781 155.136719 L 175.996094 160.625 L 176 160.625 L 164 169.0625 L 105.96875 128.246094 L 164 87.433594 L 183.800781 101.359375 L 244.726562 58.507812 L 268.726562 58.507812 Z M 229.042969 58.507812 L 229.042969 58.5625 L 184.136719 90.144531 L 172.140625 81.707031 L 205.125 58.507812 Z M 229.042969 197.988281 L 205.125 197.988281 L 172.140625 174.789062 L 184.140625 166.351562 L 229.042969 197.933594 Z M 229.042969 197.988281 " fill-opacity="1" fill-rule="evenodd"/></g></svg>